# xmcd
#
# Track frame offsets: 
#        150
#        14950
#        27605
#        49425
#        60299
#        77033
#        86769
#        96050
#        112976
#        128487
#        138060
#
# Disc length: 2090 seconds
#
# Revision: 0
# Processed by: cddbd v1.5.2PL0 Copyright (c) Steve Scherf et al.
# Submitted via: ExactAudioCopy v0.95b3
#
DISCID=8c08280b
DTITLE=Brenda Lee  - Johnny One Time
DYEAR=1900
DGENRE=
TTITLE0=Johnny One Time
TTITLE1=Traces
TTITLE2=If You Go Away
TTITLE3=Bring Me Sunshine
TTITLE4=Help Yourself (Gli OcchiMiei)
TTITLE5=Let It Be Me
TTITLE6=For Once In My Life
TTITLE7=This Girl's In Love With You
TTITLE8=Matelot
TTITLE9=The Letter
TTITLE10=Walk Away
EXTD=
EXTT0=
EXTT1=
EXTT2=
EXTT3=
EXTT4=
EXTT5=
EXTT6=
EXTT7=
EXTT8=
EXTT9=
EXTT10=
PLAYORDER=
